HIERARCHY
ROOT Hips
{
	OFFSET -0.179506 -22.333345 2.821913
	CHANNELS 6 Xposition Yposition Zposition Zrotation Yrotation Xrotation 
	JOINT LeftUpLeg
	{
		OFFSET 6.951974 -9.140623 -0.681533
		CHANNELS 3 Zrotation Yrotation Xrotation
		JOINT LeftLeg
		{
			OFFSET 3.427654 -37.519855 -0.449580
			CHANNELS 3 Zrotation Yrotation Xrotation
			JOINT LeftFoot
			{
				OFFSET -1.359570 -39.796059 -4.369333
				CHANNELS 3 Zrotation Yrotation Xrotation
				JOINT LeftToe
				{
					OFFSET 2.635814 -5.579078 11.928840
					CHANNELS 3 Zrotation Yrotation Xrotation
					End Site
					{
						OFFSET 0.000000 0.000000 0.000000
					}
				}
			}
		}
	}
	JOINT RightUpLeg
	{
		OFFSET -6.767048 -9.052170 -0.431982
		CHANNELS 3 Zrotation Yrotation Xrotation
		JOINT RightLeg
		{
			OFFSET -3.829005 -38.256897 -0.885003
			CHANNELS 3 Zrotation Yrotation Xrotation
			JOINT RightFoot
			{
				OFFSET 1.577377 -39.841461 -4.231180
				CHANNELS 3 Zrotation Yrotation Xrotation
				JOINT RightToe
				{
					OFFSET -2.537174 -4.814398 12.334795
					CHANNELS 3 Zrotation Yrotation Xrotation
					End Site
					{
						OFFSET 0.000000 0.000000 0.000000
					}
				}
			}
		}
	}
	JOINT Spine
	{
		OFFSET -0.253288 10.896323 -2.669631
		CHANNELS 3 Zrotation Yrotation Xrotation
		JOINT Spine1
		{
			OFFSET 0.548704 13.518043 0.109247
			CHANNELS 3 Zrotation Yrotation Xrotation
			JOINT Spine2
			{
				OFFSET 0.145701 5.292222 2.542457
				CHANNELS 3 Zrotation Yrotation Xrotation
				JOINT Neck
				{
					OFFSET -0.277840 21.387037 -4.285703
					CHANNELS 3 Zrotation Yrotation Xrotation
					JOINT Head
					{
						OFFSET 0.515184 6.496960 5.134897
						CHANNELS 3 Zrotation Yrotation Xrotation
						End Site
						{
							OFFSET 0.000000 0.000000 0.000000
						}
					}
				}
				JOINT LeftShoulder
				{
					OFFSET 7.884473 12.174932 -3.408961
					CHANNELS 3 Zrotation Yrotation Xrotation
					JOINT LeftArm
					{
						OFFSET 9.097692 3.046888 -0.886815
						CHANNELS 3 Zrotation Yrotation Xrotation
						JOINT LeftForeArm
						{
							OFFSET 25.961220 -1.277207 -2.745643
							CHANNELS 3 Zrotation Yrotation Xrotation
							JOINT LeftHand
							{
								OFFSET 24.923361 0.898606 -0.117091
								CHANNELS 3 Zrotation Yrotation Xrotation
								End Site
								{
									OFFSET 0.000000 0.000000 0.000000
								}
							}
						}
					}
				}
				JOINT RightShoulder
				{
					OFFSET -8.175920 11.883285 -3.861528
					CHANNELS 3 Zrotation Yrotation Xrotation
					JOINT RightArm
					{
						OFFSET -9.601238 3.255117 -0.914307
						CHANNELS 3 Zrotation Yrotation Xrotation
						JOINT RightForeArm
						{
							OFFSET -25.374195 -1.332924 -2.140099
							CHANNELS 3 Zrotation Yrotation Xrotation
							JOINT RightHand
							{
								OFFSET -25.529810 0.777228 -0.555919
								CHANNELS 3 Zrotation Yrotation Xrotation
								End Site
								{
									OFFSET 0.000000 0.000000 0.000000
								}
							}
						}
					}
				}
			}
		}
	}
}
MOTION
Frames: 7
Frame Time: 0.033333
260.924591 -253.171143 85.077179 -128.615471 -1.593687 96.594489 2.714841 -1.693866 15.799772 -7.098326 -15.959322 31.892083 -3.181426 11.626385 -11.911896 nan nan nan -8.725461 -2.079209 -56.390440 4.804592 -15.633826 39.650713 -2.774154 -7.650997 0.366021 nan nan nan -1.367674 -11.326035 12.033711 4.616224 -2.097076 9.837508 1.802083 -4.735442 -5.576202 -8.672972 5.797904 -3.317331 3.197901 4.283732 -19.433780 -21.390171 -0.912874 3.110502 -54.806072 -10.923099 19.641069 126.024116 -75.066397 -117.942836 2.280126 -21.920670 -10.608184 17.650303 -7.531427 7.622079 47.395747 -27.350527 9.629796 9.808112 55.145237 18.843980 12.014339 18.660073 -17.790441 
258.328583 -250.256226 85.386520 -127.504946 -0.803264 94.657365 4.235201 -1.688754 18.588269 -7.237262 -17.621531 32.653642 -4.699125 11.058294 -7.612149 nan nan nan -9.734046 -0.872055 -55.296514 5.766686 -16.072138 40.593579 -3.759796 -7.440495 -6.478950 nan nan nan -0.765845 -12.084439 13.136627 4.934531 -2.229571 10.625331 2.199298 -5.045823 -6.023806 -9.205522 5.916433 -2.366750 3.113156 4.473052 -20.211751 -21.422644 -0.741571 3.796063 -55.126602 -10.823489 19.499420 126.121400 -75.337497 -118.362670 0.745322 -22.326985 -10.921847 17.493175 -7.821648 7.417734 46.790639 -27.678234 9.632446 9.958782 55.257321 19.177071 14.219540 19.340143 -16.728928 
256.186523 -247.759277 85.554283 -127.841547 -0.832886 93.723627 3.908866 -2.364155 19.586212 -7.157188 -16.474120 34.126229 -4.850310 10.462889 -4.556142 nan nan nan -9.725892 -0.196071 -54.099867 5.481716 -16.278760 38.386887 -4.346977 -6.380905 -4.333369 nan nan nan -1.228312 -11.690967 12.637867 5.494361 -2.402191 15.442301 2.336373 -5.134071 -8.895576 -8.207259 7.372225 -3.543406 1.985241 3.115964 -19.554934 -19.827420 -0.266020 3.858477 -56.814949 -11.222482 20.225171 123.952643 -74.991387 -115.896089 -3.970569 -22.474986 -8.436768 17.691136 -7.927262 7.239580 47.019934 -27.318995 10.825366 7.228054 55.285467 15.834574 18.210417 19.856114 -14.441259 
254.018250 -245.256927 85.689384 -128.100374 -1.117527 93.629878 3.199760 -3.185024 19.065788 -8.317552 -16.134433 37.511458 -4.895251 8.837965 -2.730796 nan nan nan -9.802377 -0.104284 -53.762776 5.382025 -16.682380 37.289492 -4.858410 -5.764591 -4.339066 nan nan nan -1.478350 -11.531350 12.670015 5.562843 -2.352823 15.622325 2.532153 -5.272512 -9.372229 -8.015104 8.223345 -3.137934 1.670327 2.703795 -19.960209 -18.888198 0.275600 3.826067 -57.820344 -10.809239 20.439489 120.789897 -75.435180 -112.651731 -9.679227 -23.184722 -7.130985 17.536282 -8.067315 7.056837 47.299435 -26.851361 10.950750 6.417869 54.904725 15.363113 23.597727 20.095356 -12.412768 
251.911774 -242.823105 85.776413 -128.491698 -1.373513 93.699835 2.631733 -3.465991 17.822783 -8.847562 -14.744140 40.775610 -4.420895 9.643995 -4.595737 nan nan nan -9.651321 -0.536103 -53.698198 5.603237 -17.366115 37.133388 -4.795199 -5.782081 -4.838915 nan nan nan -1.621666 -11.157839 12.886013 5.657951 -2.318739 14.513944 2.598791 -5.329075 -8.844332 -8.281585 8.223530 -2.665575 1.804645 2.990913 -20.296788 -18.463596 0.586145 3.920323 -57.972101 -10.660905 20.459852 116.677833 -76.643056 -109.015119 -9.861380 -23.744911 -8.425417 17.506488 -8.068051 6.607792 47.460648 -26.470323 10.640474 6.089670 55.143750 14.368518 23.109941 20.244528 -13.125719 
249.801376 -240.343903 85.819786 -128.736666 -1.604688 93.674974 1.826894 -4.078149 16.207050 -8.752463 -12.593003 44.443149 -4.095770 11.441270 -6.046106 nan nan nan -9.701016 -0.855326 -52.638473 6.006997 -18.895072 35.648771 -1.740109 -5.607382 -3.621147 nan nan nan -1.838385 -10.595379 12.779544 5.953387 -2.609025 14.131808 2.631661 -5.269193 -8.521466 -8.795799 7.937480 -2.485193 2.227604 3.129111 -20.171548 -18.197075 0.671313 4.208780 -58.076089 -10.197860 20.792489 111.303942 -77.985558 -103.515706 -1.324569 -24.814795 -11.254814 18.133384 -7.627431 6.232516 47.612476 -26.700204 10.316388 4.771384 56.016634 10.419114 13.951116 21.613402 -15.735211 
247.781509 -237.802261 85.734901 -128.884016 -2.025555 93.682467 0.873419 -4.990078 14.174141 -9.481140 -11.098789 48.882406 -3.446131 12.781435 -8.045468 nan nan nan -9.454222 -1.365504 -52.198277 6.011924 -19.746157 36.522481 -1.823101 -6.305701 -4.146174 nan nan nan -2.376993 -9.969110 12.286801 6.192411 -2.877753 14.122284 2.657260 -5.211550 -7.905883 -8.853906 7.324476 -2.843206 2.355854 3.279998 -19.684257 -17.897767 0.942403 4.618292 -57.845443 -10.172986 20.673712 104.652246 -79.991087 -96.283233 2.776842 -23.800713 -10.884686 18.798819 -7.463480 5.871595 47.870610 -26.145023 9.977700 3.722939 56.512408 7.589767 8.669123 21.433707 -17.194021 
